<svg width="50" height="50" viewBox="0 0 50 50" fill="none" xmlns="http://www.w3.org/2000/svg">
<g clip-path="url(#clip0_62_4938)">
<path d="M47.4445 25.2222C47.4445 20.8271 46.1411 16.5307 43.6993 12.8762C41.2575 9.2218 37.7869 6.37352 33.7263 4.69158C29.6657 3.00963 25.1976 2.56955 20.8869 3.427C16.5762 4.28445 12.6166 6.40091 9.50875 9.50875C6.40092 12.6166 4.28446 16.5762 3.427 20.8869C2.56956 25.1976 3.00963 29.6657 4.69158 33.7263C6.37353 37.7869 9.2218 41.2575 12.8762 43.6993C16.5307 46.1411 20.8271 47.4445 25.2222 47.4445C31.1159 47.4445 36.7682 45.1032 40.9357 40.9357C45.1032 36.7682 47.4445 31.1159 47.4445 25.2222ZM25.8195 36.3333C25.4564 35.9622 25.2531 35.4637 25.2531 34.9445C25.2531 34.4253 25.4564 33.9267 25.8195 33.5556L32.1667 27.1667L12.5278 27.1667C12.0121 27.1667 11.5175 26.9618 11.1529 26.5972C10.7882 26.2325 10.5833 25.7379 10.5833 25.2222C10.5833 24.7065 10.7882 24.212 11.1529 23.8473C11.5175 23.4826 12.0121 23.2778 12.5278 23.2778L31.9722 23.2778L25.8195 17.125C25.4511 16.7567 25.2442 16.2571 25.2442 15.7361C25.2442 15.2152 25.4511 14.7156 25.8195 14.3472C26.1878 13.9789 26.6874 13.7719 27.2083 13.7719C27.7293 13.7719 28.2289 13.9789 28.5972 14.3472L39.5278 25.3333L28.5695 36.3333C28.3889 36.5139 28.1745 36.6572 27.9386 36.7549C27.7027 36.8526 27.4498 36.9029 27.1945 36.9029C26.9391 36.9029 26.6862 36.8526 26.4503 36.7549C26.2144 36.6572 26 36.5139 25.8195 36.3333Z" fill="#1E1E1E"/>
</g>
<defs>
<clipPath id="clip0_62_4938">
<rect width="50" height="50" fill="white" transform="translate(50) rotate(90)"/>
</clipPath>
</defs>
</svg>
