<svg width="21" height="15" viewBox="0 0 21 15" fill="none" xmlns="http://www.w3.org/2000/svg">
<path d="M2.30043 0H18.2004C19.7004 0 20.4564 0.708 20.4564 2.148V12.252C20.4564 13.68 19.7004 14.4 18.2004 14.4H2.30043C0.800433 14.4 0.0444336 13.68 0.0444336 12.252V2.148C0.0444336 0.708 0.800433 0 2.30043 0ZM10.2444 10.32L18.3324 3.684C18.6204 3.444 18.8484 2.892 18.4884 2.4C18.1404 1.908 17.5044 1.896 17.0844 2.196L10.2444 6.828L3.41643 2.196C2.99643 1.896 2.36043 1.908 2.01243 2.4C1.65243 2.892 1.88043 3.444 2.16843 3.684L10.2444 10.32Z" fill="#01324A"/>
</svg>
