<svg width="27" height="28" viewBox="0 0 27 28" fill="none" xmlns="http://www.w3.org/2000/svg">
<path d="M16.875 14C16.875 14.6922 16.6771 15.3689 16.3062 15.9445C15.9354 16.5201 15.4083 16.9687 14.7916 17.2336C14.1749 17.4985 13.4963 17.5678 12.8416 17.4327C12.1869 17.2977 11.5855 16.9644 11.1135 16.4749C10.6415 15.9854 10.3201 15.3617 10.1898 14.6828C10.0596 14.0039 10.1265 13.3001 10.3819 12.6606C10.6374 12.0211 11.0699 11.4744 11.625 11.0899C12.18 10.7053 12.8325 10.5 13.5 10.5C14.3942 10.5029 15.2511 10.8726 15.8834 11.5283C16.5157 12.1841 16.8722 13.0726 16.875 14ZM24.0469 9.1875V18.8125C24.0469 20.437 23.4246 21.9949 22.317 23.1435C21.2093 24.2922 19.7071 24.9375 18.1406 24.9375H8.85938C7.29294 24.9375 5.79066 24.2922 4.68303 23.1435C3.57539 21.9949 2.95313 20.437 2.95312 18.8125V9.1875C2.95313 7.56305 3.57539 6.00513 4.68303 4.85647C5.79066 3.70781 7.29294 3.0625 8.85938 3.0625H18.1406C19.7071 3.0625 21.2093 3.70781 22.317 4.85647C23.4246 6.00513 24.0469 7.56305 24.0469 9.1875ZM18.5625 14C18.5625 12.9616 18.2656 11.9466 17.7093 11.0833C17.153 10.2199 16.3624 9.54699 15.4373 9.14963C14.5123 8.75227 13.4944 8.64831 12.5124 8.85088C11.5303 9.05345 10.6283 9.55346 9.92027 10.2877C9.21227 11.0219 8.73011 11.9574 8.53477 12.9758C8.33944 13.9942 8.43969 15.0498 8.82286 16.0091C9.20603 16.9684 9.8549 17.7883 10.6874 18.3652C11.5199 18.9421 12.4987 19.25 13.5 19.25C14.8427 19.25 16.1303 18.6969 17.0797 17.7123C18.0291 16.7277 18.5625 15.3924 18.5625 14ZM20.25 8.3125C20.25 8.05291 20.1758 7.79915 20.0367 7.58331C19.8976 7.36748 19.7 7.19925 19.4687 7.09991C19.2374 7.00057 18.983 6.97458 18.7375 7.02522C18.492 7.07586 18.2664 7.20087 18.0894 7.38442C17.9124 7.56798 17.7919 7.80184 17.7431 8.05644C17.6942 8.31104 17.7193 8.57494 17.8151 8.81477C17.9109 9.0546 18.0731 9.25958 18.2812 9.4038C18.4894 9.54802 18.7341 9.625 18.9844 9.625C19.32 9.625 19.642 9.48672 19.8793 9.24058C20.1167 8.99444 20.25 8.6606 20.25 8.3125Z" fill="#B7E49F"/>
</svg>
