<svg width="28" height="28" viewBox="0 0 28 28" fill="none" xmlns="http://www.w3.org/2000/svg">
<path d="M13.9999 2.39697C7.59165 2.39697 2.39685 7.59177 2.39685 14.0001C2.39685 20.4084 7.59165 25.6032 13.9999 25.6032C20.4082 25.6032 25.603 20.4084 25.603 14.0001C25.603 7.59177 20.4082 2.39697 13.9999 2.39697ZM11.1596 18.8093H8.80998V11.248H11.1596V18.8093ZM9.97028 10.3197C9.22817 10.3197 8.74833 9.79394 8.74833 9.14369C8.74833 8.48013 9.24267 7.97008 10.0005 7.97008C10.7583 7.97008 11.2225 8.48013 11.237 9.14369C11.237 9.79394 10.7583 10.3197 9.97028 10.3197ZM19.7411 18.8093H17.3914V14.6189C17.3914 13.6435 17.0506 12.9812 16.2009 12.9812C15.5519 12.9812 15.1663 13.4296 14.9959 13.8611C14.933 14.0146 14.9173 14.2321 14.9173 14.4485V18.8081H12.5665V13.6592C12.5665 12.7153 12.5363 11.926 12.5048 11.2467H14.5463L14.6538 12.2971H14.701C15.0104 11.8039 15.7682 11.0763 17.0361 11.0763C18.582 11.0763 19.7411 12.1121 19.7411 14.3385V18.8093Z" fill="#B7E49F"/>
</svg>
