<svg width="63" height="63" viewBox="0 0 63 63" fill="none" xmlns="http://www.w3.org/2000/svg">
<g id="Group 3010">
<path id="Vector 9" d="M46.1711 36.1891C50.9643 34.5643 54.8179 33.544 56.8932 32.8438C56.9489 32.825 56.992 32.8857 56.953 32.9303C56.2194 33.7695 53.8098 35.2164 53.2934 35.5082C52.7455 35.8177 50.3714 37.1177 48.6061 38.7273C46.8407 40.3368 44.2232 45.9083 39.1098 46.2798C35.019 46.5769 32.6166 52.6354 32.1701 55.6276L32.718 51.7894C34.9095 40.7702 41.2403 37.8606 46.1711 36.1891Z" fill="url(#paint0_linear_93_6)"/>
<path id="Vector 10" d="M42.6167 37.7472C37.9168 39.1006 34.4568 45.3787 32.9748 48.8875C32.9498 48.9466 32.8623 48.9337 32.8594 48.8696C32.6431 44.0256 34.1751 34.0897 42.0686 31.0614C49.4826 28.217 53.5294 28.6382 54.9256 29.3194C54.9868 29.3493 54.9519 29.4211 54.8855 29.4057C51.8607 28.7052 49.8791 31.0586 48.6455 32.6274C47.3667 34.2537 47.4275 36.3619 42.6167 37.7472Z" fill="url(#paint1_linear_93_6)"/>
<path id="Vector 4" d="M18.1692 36.1891C13.3761 34.5643 9.52247 33.544 7.44716 32.8438C7.39146 32.825 7.34831 32.8857 7.38731 32.9303C8.12094 33.7695 10.5305 35.2164 11.047 35.5082C11.5948 35.8177 13.9689 37.1177 15.7343 38.7273C17.4996 40.3368 20.1172 45.9083 25.2306 46.2798C29.3213 46.5769 31.7238 52.6354 32.1702 55.6276L31.6223 51.7894C29.4309 40.7702 23.1 37.8606 18.1692 36.1891Z" fill="url(#paint2_linear_93_6)"/>
<path id="Vector 3" d="M22.3938 37.7472C27.0937 39.1006 30.5537 45.3787 32.0357 48.8875C32.0607 48.9466 32.1482 48.9337 32.1511 48.8696C32.3674 44.0256 30.8354 34.0897 22.9419 31.0614C15.5279 28.217 11.4811 28.6382 10.0849 29.3194C10.0237 29.3493 10.0586 29.4211 10.125 29.4057C13.1498 28.7052 15.1314 31.0586 16.365 32.6274C17.6438 34.2537 17.583 36.3619 22.3938 37.7472Z" fill="url(#paint3_linear_93_6)"/>
<path id="Vector 1" d="M30.7845 19.1804C34.0853 14.3573 33.1896 9.7316 32.092 7.47928C32.0594 7.41237 32.174 7.33547 32.2216 7.39188C41.615 18.5116 36.4603 31.1185 32.5942 36.168C32.5701 36.1995 32.527 36.1994 32.5043 36.1668C30.7667 33.6616 26.2391 25.8222 30.7845 19.1804Z" fill="url(#paint4_linear_93_6)"/>
<path id="Ellipse 2 (Stroke)" fill-rule="evenodd" clip-rule="evenodd" d="M31.5 2.41588C25.7528 2.41588 20.1348 4.10198 15.3562 7.26096C10.5776 10.4199 6.85313 14.9099 4.65379 20.1631C2.45445 25.4163 1.879 31.1968 3.00022 36.7735C4.12143 42.3503 6.88895 47.4729 10.9528 51.4935C15.0167 55.5141 20.1943 58.2522 25.831 59.3615C31.4678 60.4708 37.3104 59.9014 42.6201 57.7255C47.9298 55.5496 52.468 51.8647 55.661 47.137C58.8539 42.4092 60.5581 36.8509 60.5581 31.1649C60.5581 30.4978 61.1048 29.9569 61.7791 29.9569C62.4534 29.9569 63 30.4978 63 31.1649C63 37.3287 61.1526 43.3541 57.6913 48.4792C54.23 53.6042 49.3104 57.5987 43.5545 59.9575C37.7987 62.3163 31.4651 62.9334 25.3547 61.7309C19.2443 60.5284 13.6315 57.5603 9.22615 53.2018C4.8208 48.8433 1.82071 43.2902 0.605278 37.2449C-0.610157 31.1995 0.0136485 24.9332 2.39781 19.2386C4.78197 13.544 8.8194 8.67667 13.9995 5.25223C19.1797 1.82779 25.2699 0 31.5 0V2.41588Z" fill="url(#paint5_linear_93_6)"/>
</g>
<defs>
<linearGradient id="paint0_linear_93_6" x1="44.6188" y1="32.7843" x2="44.9754" y2="51.3616" gradientUnits="userSpaceOnUse">
<stop stop-color="#B7E49F"/>
<stop offset="1" stop-color="#0A531B"/>
</linearGradient>
<linearGradient id="paint1_linear_93_6" x1="44.0314" y1="28.8191" x2="43.7178" y2="45.3381" gradientUnits="userSpaceOnUse">
<stop stop-color="#B7E49F"/>
<stop offset="1" stop-color="#0A531B"/>
</linearGradient>
<linearGradient id="paint2_linear_93_6" x1="19.7215" y1="32.7843" x2="19.3649" y2="51.3616" gradientUnits="userSpaceOnUse">
<stop stop-color="#B7E49F"/>
<stop offset="1" stop-color="#0A531B"/>
</linearGradient>
<linearGradient id="paint3_linear_93_6" x1="20.9791" y1="28.8191" x2="21.2927" y2="45.3381" gradientUnits="userSpaceOnUse">
<stop stop-color="#B7E49F"/>
<stop offset="1" stop-color="#0A531B"/>
</linearGradient>
<linearGradient id="paint4_linear_93_6" x1="33.1755" y1="6.82038" x2="31.4946" y2="30.6269" gradientUnits="userSpaceOnUse">
<stop stop-color="#B7E49F"/>
<stop offset="1" stop-color="#0A531B"/>
</linearGradient>
<linearGradient id="paint5_linear_93_6" x1="31.5" y1="1.20794" x2="48.6832" y2="55.6114" gradientUnits="userSpaceOnUse">
<stop stop-color="#0A531B" stop-opacity="0"/>
<stop offset="1" stop-color="#B7E49F"/>
</linearGradient>
</defs>
</svg>
