<svg width="20" height="20" viewBox="0 0 20 20" fill="none" xmlns="http://www.w3.org/2000/svg">
<path d="M0.900244 3.05156L3.39634 0.557813C3.57241 0.380962 3.7817 0.240642 4.01217 0.144915C4.24263 0.0491882 4.48975 -5.98116e-05 4.73931 5.45145e-08C5.2479 5.45145e-08 5.72602 0.199219 6.08462 0.557813L8.77056 3.24375C8.94741 3.41983 9.08773 3.62911 9.18345 3.85958C9.27918 4.09005 9.32843 4.33716 9.32837 4.58672C9.32837 5.09531 9.12915 5.57344 8.77056 5.93203L6.80649 7.89609C7.26624 8.90944 7.90542 9.8313 8.69321 10.6172C9.47902 11.4069 10.4008 12.0484 11.4143 12.5109L13.3784 10.5469C13.5544 10.37 13.7637 10.2297 13.9942 10.134C14.2247 10.0383 14.4718 9.989 14.7213 9.98906C15.2299 9.98906 15.7081 10.1883 16.0666 10.5469L18.7549 13.2305C18.932 13.4069 19.0724 13.6165 19.1682 13.8474C19.2639 14.0783 19.313 14.3258 19.3127 14.5758C19.3127 15.0844 19.1135 15.5625 18.7549 15.9211L16.2635 18.4125C15.6916 18.9867 14.9018 19.3125 14.0909 19.3125C13.9198 19.3125 13.7557 19.2984 13.594 19.2703C10.4346 18.75 7.30102 17.0695 4.77212 14.543C2.24555 12.0188 0.56743 8.8875 0.0400867 5.71875C-0.119287 4.75078 0.201805 3.75469 0.900244 3.05156Z" fill="#01324A"/>
</svg>
